{
  "accessors": [
    {
      "bufferView": 0,
      "componentType": 5125,
      "count": 46122,
      "type": "SCALAR"
    },
    {
      "bufferView": 1,
      "componentType": 5126,
      "count": 8863,
      "max": [
        0.23079121735030683,
        0.2498716421873921,
        0.20196615029634296
      ],
      "min": [
        -0.23079121735030705,
        -0.24987164218739233,
        -0.20196615029634296
      ],
      "type": "VEC3"
    },
    {
      "bufferView": 2,
      "componentType": 5126,
      "count": 8863,
      "max": [
        0.9999994468602308,
        0.9999998754939419,
        0.9999162633709839
      ],
      "min": [
        -0.9999999792514013,
        -0.9644922751219935,
        -0.9999162633709839
      ],
      "type": "VEC3"
    },
    {
      "bufferView": 3,
      "componentType": 5126,
      "count": 8863,
      "max": [
        1.0,
        0.5812759654534997
      ],
      "min": [
        0.0,
        0.0
      ],
      "type": "VEC2"
    }
  ],
  "asset": {
    "generator": "Adobe Illustrator",
    "version": "2.0"
  },
  "bufferViews": [
    {
      "buffer": 0,
      "byteLength": 184488,
      "target": 34963
    },
    {
      "buffer": 0,
      "byteLength": 106356,
      "byteOffset": 184488,
      "target": 34962
    },
    {
      "buffer": 0,
      "byteLength": 106356,
      "byteOffset": 290844,
      "target": 34962
    },
    {
      "buffer": 0,
      "byteLength": 70904,
      "byteOffset": 397200,
      "target": 34962
    }
  ],
  "buffers": [
    {
      "byteLength": 468104,
      "uri": "data:application/octet-stream;base64,"
    }
  ],
  "materials": [
    {
      "doubleSided": true,
      "pbrMetallicRoughness": {
        "baseColorFactor": [
          0.92578125,
          0.1093750149011612,
          0.1406250149011612,
          1.0
        ],
        "metallicFactor": 0.0,
        "roughnessFactor": 0.4000000059604645
      }
    }
  ],
  "meshes": [
    {
      "primitives": [
        {
          "attributes": {
            "NORMAL": 2,
            "POSITION": 1,
            "TEXCOORD_0": 3
          },
          "indices": 0,
          "material": 0,
          "mode": 4
        }
      ]
    }
  ],
  "nodes": [
    {
      "mesh": 0
    }
  ],
  "scenes": [
    {
      "nodes": [
        0
      ]
    }
  ]
}
