{
  "accessors": [
    {
      "bufferView": 0,
      "componentType": 5125,
      "count": 46110,
      "type": "SCALAR"
    },
    {
      "bufferView": 1,
      "componentType": 5126,
      "count": 8859,
      "max": [
        0.22377536961266942,
        0.22825767521412818,
        0.1893535282708273
      ],
      "min": [
        -0.22377536961266942,
        -0.2282576752141282,
        -0.1893535282708273
      ],
      "type": "VEC3"
    },
    {
      "bufferView": 2,
      "componentType": 5126,
      "count": 8859,
      "max": [
        0.9999998607846882,
        0.999999319382046,
        0.999787217005786
      ],
      "min": [
        -0.9999985794098069,
        -0.960295426111988,
        -0.999787217005786
      ],
      "type": "VEC3"
    },
    {
      "bufferView": 3,
      "componentType": 5126,
      "count": 8859,
      "max": [
        1.0,
        0.5493783019814775
      ],
      "min": [
        0.0,
        0.0
      ],
      "type": "VEC2"
    }
  ],
  "asset": {
    "generator": "Adobe Illustrator",
    "version": "2.0"
  },
  "bufferViews": [
    {
      "buffer": 0,
      "byteLength": 184440,
      "target": 34963
    },
    {
      "buffer": 0,
      "byteLength": 106308,
      "byteOffset": 184440,
      "target": 34962
    },
    {
      "buffer": 0,
      "byteLength": 106308,
      "byteOffset": 290748,
      "target": 34962
    },
    {
      "buffer": 0,
      "byteLength": 70872,
      "byteOffset": 397056,
      "target": 34962
    }
  ],
  "buffers": [
    {
      "byteLength": 467928,
      "uri": "data:application/octet-stream;base64,"
    }
  ],
  "materials": [
    {
      "doubleSided": true,
      "pbrMetallicRoughness": {
        "baseColorFactor": [
          0.9999999403953552,
          0.0,
          0.9999999403953552,
          1.0
        ],
        "metallicFactor": 0.0,
        "roughnessFactor": 0.4000000059604645
      }
    }
  ],
  "meshes": [
    {
      "primitives": [
        {
          "attributes": {
            "NORMAL": 2,
            "POSITION": 1,
            "TEXCOORD_0": 3
          },
          "indices": 0,
          "material": 0,
          "mode": 4
        }
      ]
    }
  ],
  "nodes": [
    {
      "mesh": 0
    }
  ],
  "scenes": [
    {
      "nodes": [
        0
      ]
    }
  ]
}
