{
  "accessors": [
    {
      "bufferView": 0,
      "componentType": 5125,
      "count": 46038,
      "type": "SCALAR"
    },
    {
      "bufferView": 1,
      "componentType": 5126,
      "count": 8849,
      "max": [
        0.2501872727875464,
        0.27929106814026844,
        0.22245693786265205
      ],
      "min": [
        -0.2501872727875463,
        -0.2792910681402685,
        -0.22245693786265205
      ],
      "type": "VEC3"
    },
    {
      "bufferView": 2,
      "componentType": 5126,
      "count": 8849,
      "max": [
        0.9999991310592731,
        0.9999998860791639,
        0.9998862881602052
      ],
      "min": [
        -0.9999999638328987,
        -0.966591170211283,
        -0.9998862881602052
      ],
      "type": "VEC3"
    },
    {
      "bufferView": 3,
      "componentType": 5126,
      "count": 8849,
      "max": [
        1.0,
        0.5975672848798022
      ],
      "min": [
        0.0,
        0.0
      ],
      "type": "VEC2"
    }
  ],
  "asset": {
    "generator": "Adobe Illustrator",
    "version": "2.0"
  },
  "bufferViews": [
    {
      "buffer": 0,
      "byteLength": 184152,
      "target": 34963
    },
    {
      "buffer": 0,
      "byteLength": 106188,
      "byteOffset": 184152,
      "target": 34962
    },
    {
      "buffer": 0,
      "byteLength": 106188,
      "byteOffset": 290340,
      "target": 34962
    },
    {
      "buffer": 0,
      "byteLength": 70792,
      "byteOffset": 396528,
      "target": 34962
    }
  ],
  "buffers": [
    {
      "byteLength": 467320,
      "uri": "data:application/octet-stream;base64,"
    }
  ],
  "materials": [
    {
      "doubleSided": true,
      "pbrMetallicRoughness": {
        "baseColorFactor": [
          0.9999999403953552,
          0.9999999403953552,
          0.0,
          1.0
        ],
        "metallicFactor": 0.0,
        "roughnessFactor": 0.4000000059604645
      }
    }
  ],
  "meshes": [
    {
      "primitives": [
        {
          "attributes": {
            "NORMAL": 2,
            "POSITION": 1,
            "TEXCOORD_0": 3
          },
          "indices": 0,
          "material": 0,
          "mode": 4
        }
      ]
    }
  ],
  "nodes": [
    {
      "mesh": 0
    }
  ],
  "scenes": [
    {
      "nodes": [
        0
      ]
    }
  ]
}
